<svg xmlns="http://www.w3.org/2000/svg" xmlns:xlink="http://www.w3.org/1999/xlink" width="500" zoomAndPan="magnify" viewBox="0 0 375 374.999991" height="500" preserveAspectRatio="xMidYMid meet" version="1.2"><defs><clipPath id="60744e55fa"><path d="M 137.777344 87.636719 L 337.5 87.636719 L 337.5 287.363281 L 137.777344 287.363281 Z M 137.777344 87.636719 "/></clipPath><clipPath id="735276d00d"><path d="M 237.636719 87.636719 C 182.484375 87.636719 137.777344 132.347656 137.777344 187.5 C 137.777344 242.652344 182.484375 287.363281 237.636719 287.363281 C 292.789062 287.363281 337.5 242.652344 337.5 187.5 C 337.5 132.347656 292.789062 87.636719 237.636719 87.636719 Z M 237.636719 87.636719 "/></clipPath><clipPath id="0d4d9a626b"><path d="M 38 148.632812 L 250 148.632812 L 250 226.566406 L 38 226.566406 Z M 38 148.632812 "/></clipPath></defs><g id="53e05a0933"><g clip-rule="nonzero" clip-path="url(#60744e55fa)"><g clip-rule="nonzero" clip-path="url(#735276d00d)"><path style=" stroke:none;fill-rule:nonzero;fill:#7b1fa2;fill-opacity:1;" d="M 137.777344 87.636719 L 337.5 87.636719 L 337.5 287.363281 L 137.777344 287.363281 Z M 137.777344 87.636719 "/></g></g><path style=" stroke:none;fill-rule:nonzero;fill:#ffffff;fill-opacity:1;" d="M 238.214844 150.464844 L 66.347656 150.464844 C 61.011719 150.464844 56.683594 154.792969 56.683594 160.128906 L 56.683594 198.140625 L 40.054688 214.769531 L 56.683594 214.769531 C 56.683594 220.105469 61.011719 224.433594 66.347656 224.433594 L 238.214844 224.433594 C 243.550781 224.433594 247.878906 220.105469 247.878906 214.769531 L 247.878906 160.128906 C 247.878906 154.792969 243.550781 150.464844 238.214844 150.464844 "/><g clip-rule="nonzero" clip-path="url(#0d4d9a626b)"><path style=" stroke:none;fill-rule:nonzero;fill:#e0c9eb;fill-opacity:1;" d="M 238.214844 150.464844 L 238.214844 148.636719 L 66.347656 148.636719 C 60 148.636719 54.855469 153.78125 54.855469 160.128906 L 54.855469 197.382812 L 38.761719 213.476562 C 38.238281 214 38.082031 214.785156 38.367188 215.46875 C 38.648438 216.148438 39.316406 216.597656 40.054688 216.597656 L 56.683594 216.597656 L 56.683594 214.769531 L 54.855469 214.769531 C 54.855469 217.9375 56.144531 220.820312 58.21875 222.894531 C 60.296875 224.96875 63.179688 226.261719 66.347656 226.261719 L 238.214844 226.261719 C 244.5625 226.257812 249.707031 221.117188 249.707031 214.769531 L 249.707031 160.128906 C 249.707031 153.78125 244.5625 148.636719 238.214844 148.636719 L 238.214844 152.292969 C 240.386719 152.292969 242.332031 153.164062 243.753906 154.589844 C 245.175781 156.011719 246.050781 157.960938 246.050781 160.128906 L 246.050781 214.769531 C 246.050781 216.9375 245.175781 218.886719 243.753906 220.308594 C 242.332031 221.734375 240.386719 222.605469 238.214844 222.605469 L 66.347656 222.605469 C 64.175781 222.605469 62.230469 221.734375 60.804688 220.308594 C 59.386719 218.886719 58.511719 216.9375 58.511719 214.769531 C 58.511719 214.289062 58.3125 213.816406 57.976562 213.476562 C 57.636719 213.136719 57.164062 212.941406 56.683594 212.941406 L 44.464844 212.941406 L 57.976562 199.433594 C 58.3125 199.09375 58.511719 198.621094 58.511719 198.140625 L 58.511719 160.128906 C 58.511719 157.960938 59.386719 156.011719 60.804688 154.589844 C 62.230469 153.164062 64.175781 152.292969 66.347656 152.292969 L 238.214844 152.292969 L 238.214844 150.464844 "/></g><g style="fill:#7b1fa2;fill-opacity:1;"><g transform="translate(76.819711, 204.003621)"><path style="stroke:none" d="M 20.4375 0.59375 C 16.945312 0.59375 13.789062 -0.160156 10.96875 -1.671875 C 8.15625 -3.191406 5.941406 -5.296875 4.328125 -7.984375 C 2.710938 -10.679688 1.90625 -13.722656 1.90625 -17.109375 C 1.90625 -20.503906 2.710938 -23.546875 4.328125 -26.234375 C 5.941406 -28.921875 8.15625 -31.019531 10.96875 -32.53125 C 13.789062 -34.050781 16.960938 -34.8125 20.484375 -34.8125 C 23.453125 -34.8125 26.132812 -34.289062 28.53125 -33.25 C 30.925781 -32.207031 32.9375 -30.707031 34.5625 -28.75 L 29.484375 -24.046875 C 27.171875 -26.722656 24.300781 -28.0625 20.875 -28.0625 C 18.757812 -28.0625 16.867188 -27.597656 15.203125 -26.671875 C 13.546875 -25.742188 12.25 -24.445312 11.3125 -22.78125 C 10.382812 -21.125 9.921875 -19.234375 9.921875 -17.109375 C 9.921875 -14.992188 10.382812 -13.101562 11.3125 -11.4375 C 12.25 -9.78125 13.546875 -8.484375 15.203125 -7.546875 C 16.867188 -6.617188 18.757812 -6.15625 20.875 -6.15625 C 24.300781 -6.15625 27.171875 -7.507812 29.484375 -10.21875 L 34.5625 -5.53125 C 32.9375 -3.539062 30.914062 -2.019531 28.5 -0.96875 C 26.09375 0.0703125 23.40625 0.59375 20.4375 0.59375 Z M 20.4375 0.59375 "/></g></g><g style="fill:#7b1fa2;fill-opacity:1;"><g transform="translate(112.659585, 204.003621)"><path style="stroke:none" d="M 35.453125 -34.21875 L 35.453125 0 L 27.53125 0 L 27.53125 -14.03125 L 11.984375 -14.03125 L 11.984375 0 L 4.0625 0 L 4.0625 -34.21875 L 11.984375 -34.21875 L 11.984375 -20.734375 L 27.53125 -20.734375 L 27.53125 -34.21875 Z M 35.453125 -34.21875 "/></g></g><g style="fill:#7b1fa2;fill-opacity:1;"><g transform="translate(152.166569, 204.003621)"><path style="stroke:none" d="M 26.59375 -7.328125 L 10.703125 -7.328125 L 7.671875 0 L -0.4375 0 L 14.8125 -34.21875 L 22.640625 -34.21875 L 37.9375 0 L 29.625 0 Z M 24.109375 -13.34375 L 18.671875 -26.453125 L 13.25 -13.34375 Z M 24.109375 -13.34375 "/></g></g><g style="fill:#7b1fa2;fill-opacity:1;"><g transform="translate(187.908595, 204.003621)"><path style="stroke:none" d="M 11.140625 -27.765625 L 0.203125 -27.765625 L 0.203125 -34.21875 L 30.015625 -34.21875 L 30.015625 -27.765625 L 19.0625 -27.765625 L 19.0625 0 L 11.140625 0 Z M 11.140625 -27.765625 "/></g></g><g style="fill:#7b1fa2;fill-opacity:1;"><g transform="translate(216.511987, 204.003621)"><path style="stroke:none" d="M 6.40625 0.390625 C 5.070312 0.390625 3.945312 -0.0625 3.03125 -0.96875 C 2.113281 -1.882812 1.65625 -3.03125 1.65625 -4.40625 C 1.65625 -5.800781 2.113281 -6.929688 3.03125 -7.796875 C 3.945312 -8.660156 5.070312 -9.09375 6.40625 -9.09375 C 7.738281 -9.09375 8.859375 -8.660156 9.765625 -7.796875 C 10.679688 -6.929688 11.140625 -5.800781 11.140625 -4.40625 C 11.140625 -3.03125 10.679688 -1.882812 9.765625 -0.96875 C 8.859375 -0.0625 7.738281 0.390625 6.40625 0.390625 Z M 6.40625 0.390625 "/></g></g><g style="fill:#ffffff;fill-opacity:1;"><g transform="translate(255.059751, 204.003621)"><path style="stroke:none" d="M 4.0625 -34.21875 L 11.984375 -34.21875 L 11.984375 0 L 4.0625 0 Z M 4.0625 -34.21875 "/></g></g><g style="fill:#ffffff;fill-opacity:1;"><g transform="translate(271.097237, 204.003621)"><path style="stroke:none" d="M 20.625 0.59375 C 17.070312 0.59375 13.867188 -0.171875 11.015625 -1.703125 C 8.171875 -3.242188 5.941406 -5.359375 4.328125 -8.046875 C 2.710938 -10.734375 1.90625 -13.753906 1.90625 -17.109375 C 1.90625 -20.460938 2.710938 -23.484375 4.328125 -26.171875 C 5.941406 -28.867188 8.171875 -30.984375 11.015625 -32.515625 C 13.867188 -34.046875 17.070312 -34.8125 20.625 -34.8125 C 24.175781 -34.8125 27.367188 -34.046875 30.203125 -32.515625 C 33.046875 -30.984375 35.28125 -28.867188 36.90625 -26.171875 C 38.539062 -23.484375 39.359375 -20.460938 39.359375 -17.109375 C 39.359375 -13.753906 38.539062 -10.734375 36.90625 -8.046875 C 35.28125 -5.359375 33.046875 -3.242188 30.203125 -1.703125 C 27.367188 -0.171875 24.175781 0.59375 20.625 0.59375 Z M 20.625 -6.15625 C 22.644531 -6.15625 24.46875 -6.617188 26.09375 -7.546875 C 27.726562 -8.484375 29.007812 -9.78125 29.9375 -11.4375 C 30.875 -13.101562 31.34375 -14.992188 31.34375 -17.109375 C 31.34375 -19.234375 30.875 -21.125 29.9375 -22.78125 C 29.007812 -24.445312 27.726562 -25.742188 26.09375 -26.671875 C 24.46875 -27.597656 22.644531 -28.0625 20.625 -28.0625 C 18.601562 -28.0625 16.78125 -27.597656 15.15625 -26.671875 C 13.53125 -25.742188 12.25 -24.445312 11.3125 -22.78125 C 10.382812 -21.125 9.921875 -19.234375 9.921875 -17.109375 C 9.921875 -14.992188 10.382812 -13.101562 11.3125 -11.4375 C 12.25 -9.78125 13.53125 -8.484375 15.15625 -7.546875 C 16.78125 -6.617188 18.601562 -6.15625 20.625 -6.15625 Z M 20.625 -6.15625 "/></g></g></g></svg>